<svg width="120pt" height="120pt" viewBox="0 0 120 120" version="1.1" xmlns="http://www.w3.org/2000/svg">
<path fill="#ffffff" stroke="#ffffff" stroke-width="0.09375" opacity="1.00" d=" M 0.0 0.0 L 120.0 0.0 L 120.0 120.0 L 0.0 120.0 L 0.0 0.0 Z" />
<path fill="#1da1f2" stroke="#1da1f2" stroke-width="0.09375" opacity="1.00" d=" M 61.8 23.8 C 66.9 14.5 78.5 9.4 88.8 12.2 C 93.5 13.2 97.5 16.1 101.2 19.1 C 106.5 18.1 111.3 15.8 116.3 13.7 C 114.5 19.2 110.3 23.3 106.0 26.9 C 110.6 26.2 115.0 24.7 119.4 23.3 C 116.3 28.1 112.1 32.1 107.6 35.6 C 108.1 53.1 102.3 70.6 91.2 84.1 C 81.6 95.9 67.9 104.3 53.0 107.2 C 35.5 110.8 16.4 108.0 1.4 98.1 C 6.5 97.9 11.8 98.1 16.9 96.9 C 24.0 95.4 30.5 92.1 36.4 87.9 C 32.0 86.9 27.3 86.1 23.6 83.4 C 19.0 80.4 15.7 75.8 13.8 70.7 C 17.3 70.9 20.8 70.8 24.3 70.5 C 20.7 68.4 16.6 67.4 13.6 64.4 C 8.2 59.8 5.5 52.9 5.0 46.0 C 8.6 47.2 12.2 48.3 16.0 49.0 C 12.3 45.3 8.3 41.5 6.8 36.3 C 4.3 29.7 5.4 22.3 8.4 16.0 C 21.0 30.7 39.3 40.8 58.9 41.5 C 58.2 35.5 58.5 29.1 61.8 23.8 Z" />
</svg>
